<mxfile host="app.diagrams.net" modified="2024-03-11T16:18:28.372Z" agent="Mozilla/5.0 (Windows NT 10.0; Win64; x64) AppleWebKit/537.36 (KHTML, like Gecko) Chrome/122.0.0.0 Safari/537.36" version="24.0.4" etag="hMMuQqvQk1JwqAtGvH-a" type="github">
  <diagram name="Page-1" id="MW8zA8HfsS3kc4B4lUNf">
    <mxGraphModel>
      <root>
        <mxCell id="0" />
        <mxCell id="1" parent="0" />
      </root>
    </mxGraphModel>
  </diagram>
</mxfile>
